<svg width="100" height="100" viewBox="0 0 100 100" fill="none" xmlns="http://www.w3.org/2000/svg">
<rect x="3.5" y="3.5" width="93" height="93" fill="#FFA100" stroke="#010E19" stroke-width="7"/>
<path d="M18.964 72L12.97 66.006V38.196L18.964 32.202H39.97L45.694 37.926L40.348 43.056L36.244 39.006H23.554L21.394 41.112V63.036L23.554 65.196H32.95L38.674 60.174V57.204H30.466V50.4H46.018V72H38.944V68.22L34.678 72H18.964ZM58.7785 72L52.7845 66.006V38.196L58.7785 32.202H79.7845L85.5085 37.926L80.1625 43.056L76.0585 39.006H63.3685L61.2085 41.112V63.036L63.3685 65.196H72.7645L78.4885 60.174V57.204H70.2805V50.4H85.8325V72H78.7585V68.22L74.4925 72H58.7785Z" fill="#010E19"/>
</svg>
